Coordinates
version=1
nRows=19
nColumns=63
inDegrees=yes

Units are S.I. units (second, meters, Newtons, ...)
If the header above contains a line with 'inDegrees', this indicates whether rotational values are in degrees (yes) or radians (no).

endheader
time	pelvis_tilt	pelvis_list	pelvis_rotation	pelvis_tx	pelvis_ty	pelvis_tz	hip_flexion_r	hip_adduction_r	hip_rotation_r	knee_angle_r	knee_angle_r_beta	ankle_angle_r	subtalar_angle_r	mtp_angle_r	hip_flexion_l	hip_adduction_l	hip_rotation_l	knee_angle_l	knee_angle_l_beta	ankle_angle_l	subtalar_angle_l	mtp_angle_l	L5_S1_Flex_Ext	L5_S1_Lat_Bending	L5_S1_axial_rotation	L4_L5_Flex_Ext	L4_L5_Lat_Bending	L4_L5_axial_rotation	L3_L4_Flex_Ext	L3_L4_Lat_Bending	L3_L4_axial_rotation	L2_L3_Flex_Ext	L2_L3_Lat_Bending	L2_L3_axial_rotation	L1_L2_Flex_Ext	L1_L2_Lat_Bending	L1_L2_axial_rotation	L1_T12_Flex_Ext	L1_T12_Lat_Bending	L1_T12_axial_rotation	Abs_r3	Abs_r2	Abs_r1	Abs_t1	Abs_t2	neck_flexion	neck_bending	neck_rotation	arm_flex_r	arm_add_r	arm_rot_r	elbow_flex_r	pro_sup_r	wrist_flex_r	wrist_dev_r	arm_flex_l	arm_add_l	arm_rot_l	elbow_flex_l	pro_sup_l	wrist_flex_l	wrist_dev_l
0.000000	3.988060	-3.269419	83.121875	0.215171	0.884044	0.578381	-0.268613	0.593275	-8.735387	5.425352	0.094690	28.374675	16.750130	0.000000	-2.599803	-0.690070	2.124411	0.665768	0.011620	26.239286	-8.149816	0.000000	0.273749	0.000496	1.542546	0.508378	0.000659	1.638956	0.449741	0.001205	1.638956	0.312867	0.001205	1.349728	0.254203	0.001011	1.253319	0.156420	0.000768	1.156910	1.955358	0.005608	8.579180	0.000000	0.000000	27.770631	-4.488867	-13.104927	14.417150	-3.703971	64.296947	26.063097	85.364491	-3.482861	-2.973878	16.023191	-3.767601	69.823554	29.581249	67.057035	-0.258327	0.591015
0.025000	3.726773	-3.319496	84.449288	0.213556	0.883844	0.578768	-0.357582	0.323781	-8.774205	5.311043	0.092695	28.775897	16.019413	0.000000	-2.307397	-0.408142	2.927157	0.653391	0.011404	26.350308	-7.702418	0.000000	0.278059	-0.045856	1.432197	0.516383	-0.060989	1.521710	0.456823	-0.111495	1.521710	0.317793	-0.111495	1.253173	0.258205	-0.093510	1.163660	0.158883	-0.071031	1.074148	1.986145	-0.518735	7.965453	0.000000	0.000000	27.758987	-4.222037	-13.505576	14.715162	-3.868252	67.707748	25.543458	83.884817	-4.130721	-2.875230	16.550177	-3.874283	73.502829	29.412780	61.757513	0.218047	1.606098
0.050000	3.533101	-3.347096	85.436563	0.212302	0.883755	0.579069	-0.405990	0.110940	-8.805245	5.295250	0.092420	29.155324	15.560132	0.000000	-2.093384	-0.189666	3.334316	0.653270	0.011402	26.471856	-7.147615	0.000000	0.279546	-0.079544	1.359937	0.519145	-0.105794	1.444933	0.459267	-0.193404	1.444933	0.319493	-0.193404	1.189945	0.259587	-0.162206	1.104949	0.159733	-0.123214	1.019953	1.996771	-0.899819	7.563564	0.000000	0.000000	27.747765	-4.054293	-13.839480	14.950206	-4.023249	69.778893	25.263575	83.499910	-4.783264	-2.868257	16.969129	-3.968261	75.729454	29.413615	58.517369	0.524269	2.359852
0.075000	3.399750	-3.355279	86.116093	0.211382	0.883751	0.579282	-0.421663	-0.050496	-8.819686	5.359035	0.093533	29.510845	15.332900	0.000000	-1.950653	-0.028145	3.396793	0.663165	0.011574	26.603526	-6.510948	0.000000	0.278772	-0.101966	1.321256	0.517707	-0.135615	1.403835	0.457994	-0.247921	1.403835	0.318608	-0.247921	1.156099	0.258867	-0.207929	1.073521	0.159290	-0.157946	0.990942	1.991239	-1.153462	7.348431	0.000000	0.000000	27.737559	-3.972069	-14.108823	15.129659	-4.161580	70.772581	25.167087	83.962466	-5.430145	-2.944473	17.289954	-4.042996	76.779376	29.533118	57.013361	0.681752	2.865259
0.100000	3.319426	-3.347107	86.520273	0.210767	0.883805	0.579404	-0.412425	-0.165771	-8.808705	5.483461	0.095704	29.840348	15.298329	0.000000	-1.872094	0.082916	3.165489	0.680837	0.011883	26.744911	-5.817958	0.000000	0.276296	-0.114521	1.311644	0.513109	-0.152313	1.393621	0.453926	-0.278446	1.393621	0.315778	-0.278446	1.147688	0.256568	-0.233531	1.065710	0.157875	-0.177393	0.983733	1.973553	-1.295483	7.294969	0.000000	0.000000	27.728967	-3.961799	-14.315787	15.260898	-4.275865	70.951010	25.197633	85.025183	-6.061020	-3.095392	17.522558	-4.091952	76.928545	29.720654	56.922246	0.711909	3.135297
0.125000	3.284835	-3.325641	86.681498	0.210430	0.883891	0.579431	-0.386102	-0.240131	-8.763482	5.649590	0.098604	30.141722	15.417033	0.000000	-1.850595	0.150012	2.691309	0.704048	0.012288	26.895605	-5.094184	0.000000	0.272679	-0.118607	1.326590	0.506392	-0.157747	1.409502	0.447984	-0.288380	1.409502	0.311645	-0.288380	1.160766	0.253210	-0.241863	1.077854	0.155809	-0.183722	0.994942	1.947718	-1.341703	7.378094	0.000000	0.000000	27.722582	-4.009915	-14.462556	15.351300	-4.358722	70.576378	25.298850	86.440757	-6.665547	-3.312529	17.676847	-4.108591	76.452909	29.925588	57.920782	0.636153	3.182946
0.150000	3.288684	-3.293941	86.632163	0.210343	0.883982	0.579361	-0.350520	-0.278821	-8.675194	5.838483	0.101901	30.412856	15.649625	0.000000	-1.879046	0.179639	2.025154	0.730557	0.012751	27.055203	-4.365167	0.000000	0.268482	-0.115622	1.361584	0.498597	-0.153777	1.446683	0.441088	-0.281124	1.446683	0.306848	-0.281124	1.191386	0.249312	-0.235777	1.106287	0.153410	-0.179099	1.021188	1.917737	-1.307940	7.572723	0.000000	0.000000	27.719002	-4.102851	-14.551314	15.408242	-4.402770	69.910883	25.414377	87.961885	-7.233381	-3.587396	17.762726	-4.086377	75.628416	30.097286	59.685725	0.475897	3.021187
0.175000	3.323680	-3.255068	86.404661	0.210477	0.884053	0.579190	-0.313504	-0.287089	-8.535019	6.031204	0.105264	30.651638	15.956717	0.000000	-1.950336	0.178292	1.217928	0.758126	0.013232	27.223298	-3.656447	0.000000	0.264264	-0.106965	1.412117	0.490766	-0.142264	1.500374	0.434160	-0.260076	1.500374	0.302028	-0.260076	1.235602	0.245396	-0.218124	1.147345	0.151001	-0.165689	1.059088	1.887615	-1.210014	7.853772	0.000000	0.000000	27.718821	-4.227041	-14.584244	15.439100	-4.400629	69.216725	25.487854	89.341263	-7.754178	-3.911508	17.790103	-4.018771	74.731015	30.185112	61.893834	0.252554	2.663000
0.200000	3.382527	-3.212083	86.031388	0.210806	0.884075	0.578916	-0.282878	-0.270179	-8.334136	6.208815	0.108364	30.855958	16.298922	0.000000	-2.057353	0.152468	0.320534	0.784516	0.013692	27.399485	-2.993565	0.000000	0.260588	-0.094035	1.473678	0.483938	-0.125067	1.565783	0.428120	-0.228637	1.565783	0.297826	-0.228637	1.289468	0.241982	-0.191756	1.197364	0.148900	-0.145660	1.105259	1.861354	-1.063744	8.196156	0.000000	0.000000	27.722635	-4.368916	-14.563530	15.451252	-4.344916	68.756101	25.462917	90.331590	-8.217596	-4.276379	17.768882	-3.899238	74.036655	30.138431	64.221867	-0.012462	2.121365
0.225000	3.457933	-3.168048	85.544738	0.211300	0.884023	0.578536	-0.266469	-0.233338	-8.063724	6.352378	0.110870	31.023704	16.636854	0.000000	-2.192987	0.108660	-0.616125	0.807487	0.014093	27.583357	-2.402062	0.000000	0.258013	-0.078230	1.541757	0.479156	-0.104045	1.638117	0.423889	-0.190207	1.638117	0.294883	-0.190207	1.349038	0.239591	-0.159526	1.252678	0.147429	-0.121178	1.156318	1.842960	-0.884949	8.574792	0.000000	0.000000	27.731040	-4.514911	-14.491354	15.452075	-4.228252	68.791210	25.283207	90.685561	-8.613289	-4.673522	17.708970	-3.721238	73.821283	29.906608	66.346580	-0.297739	1.409261
0.250000	3.542604	-3.126022	84.977106	0.211933	0.883871	0.578045	-0.272101	-0.181810	-7.714960	6.442954	0.112451	31.152765	16.931125	0.000000	-2.350127	0.053367	-1.541146	0.824801	0.014395	27.774508	-1.907476	0.000000	0.257100	-0.060947	1.611845	0.477460	-0.081060	1.712585	0.422389	-0.148188	1.712585	0.293839	-0.148188	1.410364	0.238743	-0.124284	1.309624	0.146907	-0.094408	1.208883	1.836437	-0.689449	8.964596	0.000000	0.000000	27.744631	-4.651459	-14.369901	15.448944	-4.043254	69.584250	24.892360	90.155873	-8.930915	-5.094451	17.620274	-3.478236	74.360848	29.439009	67.944731	-0.581863	0.539669
0.275000	3.625937	-3.069486	84.368064	0.212696	0.883472	0.577221	-0.356940	-0.136969	-7.643874	6.476004	0.113028	31.331521	17.606260	0.000000	-2.561878	0.003433	-2.304246	0.826590	0.014427	27.980645	-1.634698	0.000000	0.260083	-0.042819	1.661395	0.483001	-0.056950	1.765232	0.427291	-0.104111	1.765232	0.297249	-0.104111	1.453720	0.241513	-0.087317	1.349883	0.148612	-0.066327	1.246046	1.857750	-0.484381	9.240178	0.000000	0.000000	27.766773	-4.595844	-13.891008	15.640048	-3.498512	75.513112	23.380886	85.928610	-9.237689	-5.760755	17.574355	-2.854321	79.192735	27.932542	66.200047	-0.439245	-0.841316
0.300000	3.677507	-3.024413	83.800325	0.213566	0.882869	0.576176	-0.531092	-0.094700	-7.161035	6.272090	0.109469	31.426328	17.764979	0.000000	-2.771328	-0.026215	-2.888371	0.810517	0.014146	28.230823	-1.516036	0.000000	0.268022	-0.031904	1.703216	0.497743	-0.042433	1.809667	0.440333	-0.077572	1.809667	0.306322	-0.077572	1.490314	0.248885	-0.065059	1.383863	0.153148	-0.049420	1.277412	1.914452	-0.360909	9.472775	0.000000	0.000000	27.800780	-4.483256	-13.445320	15.782806	-2.822974	82.717231	21.497521	80.018832	-9.407942	-6.373135	17.490140	-2.157098	85.263596	26.101649	63.137327	-0.278607	-2.280569
0.325000	3.676793	-3.002092	83.278479	0.214519	0.882069	0.575044	-0.744988	-0.084431	-6.383129	5.912793	0.103198	31.446477	17.483189	0.000000	-2.954100	-0.014369	-3.340953	0.781632	0.013642	28.504861	-1.493104	0.000000	0.280939	-0.031014	1.736000	0.521731	-0.041248	1.844500	0.461554	-0.075407	1.844500	0.321085	-0.075407	1.519000	0.260880	-0.063243	1.410500	0.160528	-0.048040	1.302000	2.006718	-0.350834	9.655114	0.000000	0.000000	27.843542	-4.310827	-13.075761	15.913367	-2.098427	90.514602	19.417402	72.797583	-9.466483	-6.953171	17.386307	-1.462569	92.131349	24.015878	59.075202	-0.147779	-3.700402
0.350000	3.642833	-3.003371	82.831139	0.215484	0.881088	0.573886	-1.006563	-0.083154	-5.271357	5.392671	0.094120	31.340637	16.656210	0.000000	-3.105878	0.020458	-3.564303	0.739035	0.012899	28.768690	-1.666033	0.000000	0.297948	-0.037186	1.758526	0.553319	-0.049457	1.868434	0.489498	-0.090414	1.868434	0.340524	-0.090414	1.538710	0.276674	-0.075830	1.428802	0.170247	-0.057601	1.318894	2.128211	-0.420655	9.780393	0.000000	0.000000	27.893866	-4.115933	-12.789120	15.947913	-1.439510	97.915669	17.362294	64.735691	-9.292147	-7.348050	17.362002	-0.842834	100.011149	21.762633	53.422146	-0.165902	-5.112865
0.375000	3.590966	-3.041626	82.444611	0.216411	0.879930	0.572791	-1.285519	-0.083113	-3.902507	4.756194	0.083011	31.096102	15.383007	0.000000	-3.211990	0.066393	-3.543111	0.685932	0.011972	29.002515	-2.087607	0.000000	0.319131	-0.047414	1.769057	0.592658	-0.063061	1.879623	0.524300	-0.115283	1.879623	0.364735	-0.115283	1.547925	0.296345	-0.096687	1.437359	0.182351	-0.073445	1.326793	2.279520	-0.536361	9.838964	0.000000	0.000000	27.949816	-3.964760	-12.639125	15.903035	-0.909769	104.726300	15.396305	56.020794	-8.893092	-7.533848	17.334837	-0.332802	108.301557	19.445065	46.918664	-0.368872	-6.385616
0.400000	3.534502	-3.108576	82.145453	0.217189	0.878609	0.571836	-1.555982	-0.080562	-2.364452	4.098143	0.071526	30.761656	13.702489	0.000000	-3.281795	0.113384	-3.230609	0.622881	0.010871	29.177923	-2.771677	0.000000	0.341653	-0.058440	1.759314	0.634484	-0.077726	1.869271	0.561302	-0.142092	1.869271	0.390476	-0.142092	1.539399	0.317259	-0.119172	1.429442	0.195221	-0.090524	1.319485	2.440395	-0.661089	9.784774	0.000000	0.000000	28.004117	-3.901809	-12.606075	15.811632	-0.569292	110.954130	13.577060	47.065492	-8.267050	-7.501453	17.326178	0.041195	116.762975	17.169026	39.793325	-0.742095	-7.411426
0.425000	3.468216	-3.220284	81.925401	0.217847	0.877154	0.571137	-1.775127	-0.089258	-0.890721	3.468695	0.060540	30.354864	11.932431	0.000000	-3.292197	0.163429	-2.750768	0.560588	0.009784	29.297494	-3.570352	0.000000	0.364795	-0.071304	1.724328	0.677461	-0.094835	1.832099	0.599322	-0.173369	1.832099	0.416924	-0.173369	1.508787	0.338749	-0.145404	1.401017	0.208444	-0.110450	1.293246	2.605694	-0.806609	9.590196	0.000000	0.000000	28.059452	-3.962472	-12.768556	15.797127	-0.367678	117.056165	11.766190	38.055731	-7.630823	-7.386206	17.256254	0.211560	124.635937	15.048186	32.761883	-1.235815	-8.200060
0.450000	3.403064	-3.376254	81.782077	0.218386	0.875592	0.570769	-1.932360	-0.092375	0.561532	2.875946	0.050195	29.878455	10.039570	0.000000	-3.244054	0.204256	-2.131040	0.503101	0.008781	29.336443	-4.451063	0.000000	0.386683	-0.085108	1.668913	0.718108	-0.113193	1.773220	0.635281	-0.206930	1.773220	0.441940	-0.206930	1.460299	0.359074	-0.173551	1.355992	0.220950	-0.131832	1.251685	2.762036	-0.962753	9.281995	0.000000	0.000000	28.108766	-4.197950	-13.223912	15.853957	-0.328897	122.838999	10.015270	29.272789	-6.932109	-7.121790	17.135550	0.150657	131.689956	13.164605	25.839025	-1.797406	-8.707943
